<svg width="24" height="24" viewBox="0 0 24 24" fill="none" xmlns="http://www.w3.org/2000/svg">
<rect width="24" height="24" rx="12" fill="#F7931E"/>
<g clip-path="url(#clip0_15_12)">
<path fill-rule="evenodd" clip-rule="evenodd" d="M12.0044 12.1111C10.0444 12.1111 8.44888 10.5156 8.44888 8.55556C8.44888 6.59556 10.0444 5 12.0044 5C13.9644 5 15.56 6.59556 15.56 8.55556C15.56 10.5156 13.9644 12.1111 12.0044 12.1111ZM12.0044 6.68889C10.9751 6.68889 10.1378 7.52622 10.1378 8.55556C10.1378 9.58489 10.9751 10.4222 12.0044 10.4222C13.0338 10.4222 13.8711 9.58489 13.8711 8.55556C13.8711 7.52622 13.0338 6.68889 12.0044 6.68889Z" fill="white"/>
<path fill-rule="evenodd" clip-rule="evenodd" d="M15.8133 12.4556C15.5129 12.0671 14.9542 11.9964 14.5667 12.2973C14.5578 12.304 13.5964 13.0142 12.0044 13.0142C10.4187 13.0142 9.43466 12.2978 9.43111 12.2951C9.04133 11.9956 8.48355 12.0684 8.18444 12.4578C7.88488 12.8471 7.95777 13.4053 8.34711 13.7044C8.39466 13.7409 9.32488 14.4422 10.8716 14.6991L8.51066 17.0858C8.16533 17.4351 8.16844 17.9978 8.51777 18.3436C8.69111 18.5147 8.91644 18.6 9.14266 18.6C9.37155 18.6 9.60044 18.512 9.77466 18.336L12.0049 16.0813L14.2347 18.336C14.408 18.512 14.6378 18.6 14.8667 18.6C15.092 18.6 15.3182 18.5147 15.4911 18.3431C15.8404 17.9978 15.8436 17.4351 15.4982 17.0862L13.1382 14.6996C14.6836 14.4418 15.6093 13.7396 15.656 13.7027C16.044 13.4022 16.1147 12.844 15.8142 12.456" fill="white"/>
</g>
<defs>
<clipPath id="clip0_15_12">
<rect width="8" height="13.7778" fill="white" transform="translate(8 5)"/>
</clipPath>
</defs>
</svg>
