<svg width="24" height="24" viewBox="0 0 24 24" fill="none" xmlns="http://www.w3.org/2000/svg">
<rect width="24" height="24" rx="12" fill="#29B6F6"/>
<path d="M6.44276 11.2448C9.68617 9.83495 11.8485 8.90085 12.9296 8.4511C16.0173 7.16238 16.6574 6.94615 17.0812 6.9375C17.1763 6.9375 17.3752 6.9548 17.5136 7.06724C17.6261 7.16238 17.6607 7.28346 17.6693 7.36996C17.6866 7.45645 17.7039 7.65538 17.6866 7.81106C17.5223 9.56683 16.7957 13.8395 16.4238 15.8115C16.2682 16.6418 15.9568 16.9272 15.6627 16.9532C15.014 17.0137 14.5297 16.5294 13.8983 16.1142C12.9209 15.4742 12.3674 15.0763 11.416 14.4449C10.3176 13.7184 11.0268 13.3205 11.6582 12.6719C11.8225 12.4989 14.6681 9.9128 14.72 9.67927C14.7286 9.65332 14.7373 9.54088 14.6681 9.48034C14.5989 9.4198 14.5037 9.44574 14.4345 9.45439C14.3394 9.48034 12.7739 10.5096 9.73807 12.5594C9.29696 12.8621 8.89046 13.0092 8.53584 13.0092C8.13798 13.0005 7.37686 12.7843 6.80602 12.6027C6.10544 12.3778 5.5519 12.2567 5.60379 11.8761C5.63839 11.6599 5.91516 11.4523 6.44276 11.2448Z" fill="white"/>
</svg>
