<svg width="24" height="24" viewBox="0 0 24 24" fill="none" xmlns="http://www.w3.org/2000/svg">
<rect width="24" height="24" rx="12" fill="#EA3E41"/>
<g clip-path="url(#clip0_15_8)">
<path fill-rule="evenodd" clip-rule="evenodd" d="M18.87 8.97253C18.87 8.97253 18.743 8.07683 18.3535 7.68207C17.8595 7.16423 17.3048 7.16207 17.0509 7.13173C15.2317 7 12.5026 7 12.5026 7H12.497C12.497 7 9.76827 7 7.94913 7.13173C7.6952 7.16207 7.14097 7.16423 6.64653 7.68207C6.25653 8.0764 6.13 8.97253 6.13 8.97253C6.13 8.97253 6 10.0247 6 11.0764V12.0193C6 13.0714 6.13 14.1231 6.13 14.1231C6.13 14.1231 6.25697 15.0193 6.64653 15.4136C7.14053 15.9314 7.79053 15.915 8.08 15.9696C9.12 16.0692 12.5 16.0996 12.5 16.0996C12.5 16.0996 15.2317 16.0952 17.0509 15.9639C17.3048 15.9336 17.859 15.931 18.3535 15.4136C18.7435 15.0193 18.87 14.1223 18.87 14.1223C18.87 14.1223 19 13.071 19 12.0189V11.0764C19 10.0247 18.87 8.97253 18.87 8.97253ZM11.158 13.2582L11.1567 9.60433L14.6701 11.4373L11.158 13.2573V13.2582Z" fill="white"/>
</g>
<defs>
<clipPath id="clip0_15_8">
<rect width="13" height="9.1" fill="white" transform="translate(6 7)"/>
</clipPath>
</defs>
</svg>
