<?xml version="1.0" ?><!DOCTYPE svg  PUBLIC '-//W3C//DTD SVG 1.1//EN'  'http://www.w3.org/Graphics/SVG/1.1/DTD/svg11.dtd'><svg enable-background="new 0 0 128 128" id="Слой_1" version="1.1" viewBox="0 0 128 128" xml:space="preserve" xmlns="http://www.w3.org/2000/svg" xmlns:xlink="http://www.w3.org/1999/xlink"><g><g><path d="M82,38.5c0,0.5-0.4,0.8-0.8,0.8H46.8c-0.5,0-0.8-0.4-0.8-0.8V12.2C46,7.7,49.6,4,54.2,4h19.7    c4.5,0,8.2,3.7,8.2,8.2V38.5z" fill="#C7C7C4"/></g><g><path d="M81.2,40.3H46.8c-1,0-1.8-0.8-1.8-1.8V12.2C45,7.1,49.1,3,54.2,3h19.7c5.1,0,9.2,4.1,9.2,9.2v26.2    C83,39.5,82.2,40.3,81.2,40.3z M47,38.3H81V12.2c0-4-3.2-7.2-7.2-7.2H54.2c-4,0-7.2,3.2-7.2,7.2V38.3z" fill="#62355C"/></g><path d="M46,34.4v3.8c0,0.5,0.6,1.1,1,1.1H81c0.5,0,1-0.7,1-1.1v-3.8H46z" fill="#593055" opacity="0.2"/><g><path d="M63.8,124h0.3c-13.8,0-24.7-11.2-24.7-25V37.6h49.2V99C88.6,112.8,77.6,124,63.8,124z" fill="#F1ED7B"/></g><g><polygon fill="#62355C" points="64.9,48.2 64.9,48.2 59.4,57.3 70.3,57.3   "/></g><g><rect fill="#62355C" height="8.2" width="9.8" x="70.6" y="62.2"/></g><g><circle cx="53.1" cy="73.6" fill="#62355C" r="5.4"/></g><g><circle cx="64.9" cy="100.4" fill="#62355C" r="5.4"/></g><g opacity="0.1"><path d="M42.7,99V37.6h-3.3V99c0,13.8,11,25,24.8,25c0.6,0,1.2,0,1.7-0.1C52.9,123.1,42.7,112.3,42.7,99z" fill="#FFFFFF"/></g><path d="M85.3,37.6V99c0,13.3-10.1,24.1-23.2,24.9c0.5,0,1,0.1,1.5,0.1c13.8,0,24.9-11.2,24.9-25   V37.6H85.3z" fill="#593055" opacity="0.2"/><g><path d="M58.8,26.1h-5.9c-0.2,0-0.3-0.1-0.3-0.3v-4.3c0-0.2,0.1-0.3,0.3-0.3h5.9c0.2,0,0.3,0.1,0.3,0.3v4.3    C59.1,26,58.9,26.1,58.8,26.1z" fill="#4D4F50"/></g><g><path d="M75.2,26.1h-5.9c-0.2,0-0.3-0.1-0.3-0.3v-4.3c0-0.2,0.1-0.3,0.3-0.3h5.9c0.2,0,0.3,0.1,0.3,0.3v4.3    C75.5,26,75.3,26.1,75.2,26.1z" fill="#4D4F50"/></g><g><path d="M58.8,27.1h-5.9c-0.7,0-1.3-0.6-1.3-1.3v-4.3c0-0.7,0.6-1.3,1.3-1.3h5.9c0.7,0,1.3,0.6,1.3,1.3v4.3    C60.1,26.6,59.5,27.1,58.8,27.1z M53.5,25.1h4.6v-2.9h-4.6V25.1z" fill="#62355C"/></g><g><path d="M75.2,27.1h-5.9c-0.7,0-1.3-0.6-1.3-1.3v-4.3c0-0.7,0.6-1.3,1.3-1.3h5.9c0.7,0,1.3,0.6,1.3,1.3v4.3    C76.5,26.6,75.9,27.1,75.2,27.1z M69.9,25.1h4.6v-2.9h-4.6V25.1z" fill="#62355C"/></g><g><path d="M64.1,125h-0.3c0,0,0,0-0.1,0c-14.2-0.2-25.3-11.6-25.3-26V37.6c0-0.6,0.4-1,1-1h49.2c0.6,0,1,0.4,1,1V99    C89.6,113.2,78.2,124.8,64.1,125C64.1,125,64.1,125,64.1,125z M40.4,38.6V99c0,13.4,10.3,23.9,23.6,24c13-0.1,23.7-10.8,23.7-24    V38.6H40.4z" fill="#62355C"/></g><g><path d="M64.9,101.4c-0.6,0-1-0.4-1-1V52.8c0-0.6,0.4-1,1-1s1,0.4,1,1v47.7C65.9,101,65.4,101.4,64.9,101.4z" fill="#62355C"/></g><g><path d="M64.9,85.3c-0.3,0-0.7-0.2-0.9-0.5c-0.3-0.5-0.1-1.1,0.3-1.4l6.7-4c2.1-1.3,3.5-3.7,3.5-6.2v-6.9    c0-0.6,0.4-1,1-1s1,0.4,1,1v6.9c0,3.2-1.7,6.2-4.4,7.9l-6.7,4C65.2,85.2,65,85.3,64.9,85.3z" fill="#62355C"/></g><g><path d="M64.9,93.3c-0.2,0-0.4,0-0.5-0.2l-7.9-5c-2.7-1.7-4.3-4.6-4.3-7.8v-6.8c0-0.6,0.4-1,1-1s1,0.4,1,1v6.8    c0,2.5,1.3,4.8,3.4,6.1l7.9,5c0.5,0.3,0.6,0.9,0.3,1.4C65.5,93.2,65.2,93.3,64.9,93.3z" fill="#62355C"/></g></g></svg>