<svg width="32" height="32" viewBox="0 0 32 32" fill="none" xmlns="http://www.w3.org/2000/svg">
<g id="next 2" clip-path="url(#clip0_29_185)">
<g id="Layer 2">
<path id="Vector" d="M12 24.9999C12.1316 25.0007 12.2621 24.9755 12.3839 24.9257C12.5057 24.8759 12.6166 24.8026 12.71 24.7099L20.71 16.7099C20.8037 16.617 20.8781 16.5064 20.9289 16.3845C20.9797 16.2627 21.0058 16.132 21.0058 15.9999C21.0058 15.8679 20.9797 15.7372 20.9289 15.6154C20.8781 15.4935 20.8037 15.3829 20.71 15.2899L12.71 7.28994C12.5217 7.10164 12.2663 6.99585 12 6.99585C11.7337 6.99585 11.4783 7.10164 11.29 7.28994C11.1017 7.47825 10.9959 7.73364 10.9959 7.99994C10.9959 8.26624 11.1017 8.52164 11.29 8.70994L18.59 15.9999L11.29 23.2899C11.1963 23.3829 11.1219 23.4935 11.0711 23.6154C11.0203 23.7372 10.9942 23.8679 10.9942 23.9999C10.9942 24.132 11.0203 24.2627 11.0711 24.3845C11.1219 24.5064 11.1963 24.617 11.29 24.7099C11.3834 24.8026 11.4943 24.8759 11.6161 24.9257C11.7379 24.9755 11.8684 25.0007 12 24.9999Z" fill="black"/>
</g>
</g>
<defs>
<clipPath id="clip0_29_185">
<rect width="32" height="32" fill="white" transform="matrix(-1 0 0 1 32 0)"/>
</clipPath>
</defs>
</svg>
