<svg width="24" height="24" viewBox="0 0 24 24" fill="none" xmlns="http://www.w3.org/2000/svg">
<rect width="24" height="24" rx="12" fill="#3375F6"/>
<g clip-path="url(#clip0_15_7)">
<path fill-rule="evenodd" clip-rule="evenodd" d="M11.8172 16.1734H12.7724C12.7724 16.1734 13.0608 16.1423 13.2087 15.9833C13.3445 15.8378 13.3396 15.5639 13.3396 15.5639C13.3396 15.5639 13.3202 14.2824 13.9156 14.0938C14.5023 13.9081 15.2553 15.3326 16.0538 15.8805C16.6565 16.2951 17.1156 16.2044 17.1156 16.2044L19.249 16.1743C19.249 16.1743 20.3651 16.1064 19.8356 15.2289C19.792 15.1561 19.5273 14.5792 18.2492 13.3928C16.911 12.1515 17.0904 12.3518 18.7021 10.2039C19.6834 8.89578 20.0761 8.09724 19.953 7.75542C19.8366 7.42912 19.1142 7.51542 19.1142 7.51542L16.7122 7.52997C16.7122 7.52997 16.5338 7.50572 16.4019 7.58524C16.273 7.66282 16.1901 7.84318 16.1901 7.84318C16.1901 7.84318 15.8099 8.85554 15.3028 9.71615C14.2332 11.5324 13.8056 11.6284 13.6301 11.5149C13.2237 11.2531 13.3256 10.4594 13.3256 9.89554C13.3256 8.13554 13.5922 7.40148 12.8053 7.21142C12.5435 7.14839 12.3515 7.10669 11.6834 7.09991C10.8262 7.09118 10.1008 7.10282 9.69066 7.30354C9.41672 7.43785 9.20581 7.73603 9.33429 7.753C9.49429 7.77482 9.85308 7.84997 10.0441 8.10985C10.2899 8.44439 10.2817 9.19736 10.2817 9.19736C10.2817 9.19736 10.4223 11.2691 9.95102 11.5261C9.62714 11.7031 9.18302 11.3418 8.22981 9.69433C7.73817 8.84972 7.36969 7.91639 7.36969 7.91639C7.36969 7.91639 7.2989 7.74185 7.17187 7.64827C7.01769 7.5353 6.80338 7.49942 6.80338 7.49942L4.51975 7.51397C4.51975 7.51397 4.17696 7.52366 4.05138 7.673C3.93987 7.80536 4.04169 8.08027 4.04169 8.08027C4.04169 8.08027 5.82932 12.2611 7.85357 14.3688C9.70908 16.3009 11.8162 16.1738 11.8162 16.1738" fill="white"/>
</g>
<defs>
<clipPath id="clip0_15_7">
<rect width="16" height="9.21212" fill="white" transform="translate(4 7)"/>
</clipPath>
</defs>
</svg>
