<svg width="20" height="20" viewBox="0 0 20 20" fill="none" xmlns="http://www.w3.org/2000/svg">
<path d="M4.33319 14H15.6665C16.1248 14 16.517 13.8369 16.8434 13.5103C17.1699 13.1838 17.3331 12.7916 17.3331 12.3334V5.00008C17.3331 4.54172 17.1699 4.14951 16.8434 3.82305C16.517 3.49662 16.1248 3.3335 15.6665 3.3335H4.33319C3.87487 3.3335 3.48245 3.49662 3.15605 3.82305C2.82963 4.14948 2.6665 4.54172 2.6665 5.00008V12.3334C2.6665 12.7916 2.82963 13.1839 3.15605 13.5103C3.48245 13.8367 3.87487 14 4.33319 14ZM3.99973 5.00008C3.99973 4.90982 4.03274 4.83156 4.09871 4.76574C4.16478 4.69985 4.24293 4.66679 4.33319 4.66679H15.6662C15.7566 4.66679 15.8348 4.69978 15.9007 4.76574C15.9665 4.83174 15.9995 4.90982 15.9995 5.00008V12.3334C15.9995 12.4235 15.9665 12.5018 15.9007 12.5676C15.8348 12.6336 15.7566 12.6666 15.6662 12.6666H4.33309C4.24279 12.6666 4.16464 12.6337 4.0986 12.5676C4.03274 12.5016 3.99973 12.4235 3.99973 12.3334V5.00008Z" fill="black"/>
<path d="M18.3334 14.6667H1.66665H0V15.6666C0 15.9445 0.163123 16.1805 0.489514 16.3749C0.816088 16.5693 1.20833 16.6665 1.66665 16.6665H18.3334C18.7916 16.6665 19.1839 16.5693 19.5103 16.3749C19.8367 16.1805 20 15.9445 20 15.6666V14.6667H18.3334ZM10.8333 15.6666H9.16665C9.05567 15.6666 9.0001 15.6109 9.0001 15.4999C9.0001 15.3888 9.05567 15.333 9.16665 15.333H10.8333C10.9444 15.333 11.0001 15.3888 11.0001 15.4999C11.0001 15.6109 10.9444 15.6666 10.8333 15.6666Z" fill="black"/>
</svg>
