<svg width="20" height="20" viewBox="0 0 20 20" fill="none" xmlns="http://www.w3.org/2000/svg">
<path d="M13.177 20C13.177 20 14.9924 20 14.9924 18.1819V1.81811C14.9924 0 13.177 0 13.177 0H6.82319C6.82319 0 5.00781 0 5.00781 1.81811V18.1819C5.00784 20 6.82319 20 6.82319 20H13.177ZM10.0001 19.243C9.49908 19.243 9.09243 18.8363 9.09243 18.3353C9.09243 17.8342 9.49908 17.4276 10.0001 17.4276C10.5012 17.4276 10.9078 17.8343 10.9078 18.3353C10.9078 18.8363 10.5012 19.243 10.0001 19.243ZM8.63857 1.10828C8.63857 0.995732 8.69213 0.907677 8.75928 0.907677H11.2409C11.3072 0.907677 11.3616 0.99755 11.3616 1.10828V1.16184C11.3616 1.27439 11.3072 1.36245 11.2409 1.36245H8.75928C8.69301 1.36245 8.63857 1.27258 8.63857 1.16184V1.10828ZM5.91551 2.26922H14.0847V16.7922H5.91551V2.26922Z" fill="black"/>
</svg>
