<svg width="20" height="20" viewBox="0 0 20 20" fill="none" xmlns="http://www.w3.org/2000/svg">
<path d="M16.0254 0.253906H3.95508C3.50195 0.253906 3.13477 0.621094 3.13477 1.07422V18.8574C3.13477 19.3105 3.50195 19.6777 3.95508 19.6777H16.0254C16.4785 19.6777 16.8457 19.3105 16.8457 18.8574V1.07422C16.8457 0.621094 16.4785 0.253906 16.0254 0.253906ZM9.98861 1.02213C10.0578 1.02213 10.1139 1.07824 10.1139 1.14746C10.1139 1.21668 10.0578 1.27279 9.98861 1.27279C9.91939 1.27279 9.86328 1.21668 9.86328 1.14746C9.86328 1.07824 9.91939 1.02213 9.98861 1.02213ZM10.0194 19.3337C9.756 19.3337 9.54244 19.1202 9.54244 18.8567C9.54244 18.5933 9.756 18.3797 10.0194 18.3797C10.2829 18.3797 10.4964 18.5933 10.4964 18.8567C10.4964 19.1202 10.2829 19.3337 10.0194 19.3337ZM15.9766 17.9297H4.02344V2.03125H15.9766V17.9297Z" fill="#212121"/>
</svg>
